<svg xmlns="http://www.w3.org/2000/svg" width="256" height="256" viewBox="0 0 100 100"><rect width="100" height="100" rx="50" fill="#475d62"></rect><path d="M5.41 60.73L5.41 60.73Q3.91 60.73 3.03 59.85Q2.16 58.98 2.16 57.47L2.16 57.47L2.16 39.34Q2.58 39.27 3.38 39.15Q4.19 39.03 4.99 39.03L4.99 39.03Q6.74 39.03 7.51 39.62Q8.28 40.22 8.28 41.93L8.28 41.93L8.28 55.79L16.30 55.79Q16.54 56.18 16.75 56.81Q16.96 57.44 16.96 58.17L16.96 58.17Q16.96 59.47 16.40 60.10Q15.84 60.73 14.86 60.73L14.86 60.73L5.41 60.73ZM41.22 49.98L41.22 49.98Q41.22 52.71 40.38 54.83Q39.54 56.95 38.05 58.37Q36.56 59.78 34.53 60.52Q32.50 61.25 30.12 61.25L30.12 61.25Q27.74 61.25 25.71 60.52Q23.68 59.78 22.21 58.35Q20.74 56.91 19.90 54.81Q19.06 52.71 19.06 49.98L19.06 49.98Q19.06 47.25 19.92 45.15Q20.78 43.05 22.26 41.64Q23.75 40.22 25.76 39.48Q27.78 38.75 30.12 38.75L30.12 38.75Q32.47 38.75 34.48 39.48Q36.49 40.22 38.00 41.64Q39.50 43.05 40.36 45.15Q41.22 47.25 41.22 49.98ZM34.92 49.98L34.92 49.98Q34.92 46.83 33.62 45.26Q32.33 43.68 30.12 43.68L30.12 43.68Q27.98 43.68 26.67 45.24Q25.36 46.80 25.36 49.98L25.36 49.98Q25.36 53.17 26.66 54.74Q27.95 56.32 30.16 56.32L30.16 56.32Q32.33 56.32 33.62 54.74Q34.92 53.17 34.92 49.98ZM63.93 50.02L63.93 57.23Q63.93 58.31 63.55 58.84Q63.16 59.36 62.32 59.85L62.32 59.85Q61.83 60.13 61.10 60.40Q60.36 60.66 59.49 60.85Q58.61 61.04 57.65 61.15Q56.69 61.25 55.74 61.25L55.74 61.25Q53.22 61.25 51.02 60.61Q48.81 59.96 47.18 58.59Q45.56 57.23 44.61 55.11Q43.67 52.99 43.67 50.05L43.67 50.05Q43.67 47.29 44.61 45.19Q45.56 43.09 47.20 41.65Q48.85 40.22 51.05 39.48Q53.26 38.75 55.81 38.75L55.81 38.75Q59.14 38.75 61.08 39.80Q63.02 40.85 63.02 42.56L63.02 42.56Q63.02 43.47 62.57 44.14Q62.11 44.80 61.52 45.19L61.52 45.19Q60.64 44.66 59.31 44.17Q57.98 43.68 56.27 43.68L56.27 43.68Q54.87 43.68 53.71 44.14Q52.56 44.59 51.72 45.41Q50.88 46.24 50.42 47.41Q49.97 48.58 49.97 50.02L49.97 50.02Q49.97 51.59 50.40 52.78Q50.84 53.97 51.63 54.76Q52.42 55.55 53.48 55.95Q54.55 56.35 55.85 56.35L55.85 56.35Q56.62 56.35 57.19 56.21Q57.77 56.07 58.09 55.90L58.09 55.90L58.09 52.54L54.34 52.54Q54.13 52.15 53.94 51.52Q53.75 50.89 53.75 50.19L53.75 50.19Q53.75 48.93 54.32 48.37Q54.90 47.81 55.81 47.81L55.81 47.81L61.73 47.81Q62.78 47.81 63.35 48.39Q63.93 48.97 63.93 50.02L63.93 50.02ZM71.25 60.90L71.25 60.90Q69.39 60.90 68.67 60.27Q67.96 59.64 67.96 58.00L67.96 58.00L67.96 39.34Q68.38 39.27 69.18 39.15Q69.99 39.03 70.79 39.03L70.79 39.03Q72.54 39.03 73.31 39.62Q74.08 40.22 74.08 41.93L74.08 41.93L74.08 60.59Q73.70 60.69 72.89 60.80Q72.09 60.90 71.25 60.90ZM97.84 59.89L97.84 59.89Q97.36 60.38 96.43 60.64Q95.50 60.90 94.21 60.90L94.21 60.90Q92.91 60.90 91.76 60.52Q90.60 60.13 89.87 58.66L89.87 58.66L86.40 51.59Q85.88 50.51 85.46 49.55Q85.04 48.58 84.55 47.32L84.55 47.32L84.30 47.39Q84.48 49.60 84.49 51.47Q84.51 53.34 84.51 55.06L84.51 55.06L84.51 60.62Q84.13 60.69 83.36 60.80Q82.59 60.90 81.78 60.90L81.78 60.90Q80.00 60.90 79.31 60.29Q78.63 59.68 78.63 58.10L78.63 58.10L78.63 40.50Q79.12 39.80 80.14 39.45Q81.15 39.10 82.31 39.10L82.31 39.10Q83.60 39.10 84.77 39.50Q85.95 39.90 86.65 41.34L86.65 41.34L90.15 48.41Q90.67 49.49 91.09 50.45Q91.51 51.42 92 52.68L92 52.68L92.14 52.64Q92 50.96 91.98 49.48Q91.97 47.99 91.97 46.62L91.97 46.62L91.97 39.31Q92.35 39.24 93.12 39.13Q93.89 39.03 94.70 39.03L94.70 39.03Q96.48 39.03 97.16 39.64Q97.84 40.25 97.84 41.83L97.84 41.83L97.84 59.89Z" fill="#ffffff"></path></svg>