<?xml version="1.0" encoding="utf-8"?>
<!-- Generator: Adobe Illustrator 27.0.0, SVG Export Plug-In . SVG Version: 6.00 Build 0)  -->
<svg version="1.1" id="Capa_1" xmlns="http://www.w3.org/2000/svg" xmlns:xlink="http://www.w3.org/1999/xlink" x="0px" y="0px"
	 viewBox="0 0 340.38 339.44" style="enable-background:new 0 0 340.38 339.44;" xml:space="preserve">
<style type="text/css">
	.st0{fill-rule:evenodd;clip-rule:evenodd;fill:#2D3E50;}
	.st1{fill:none;}
	.st2{fill:#FBCB96;}
	.st3{fill:#571D10;}
	.st4{opacity:0.3;}
	.st5{fill:#FFFFFF;}
	.st6{fill:url(#SVGID_1_);}
	.st7{fill:#CFE1EB;}
	.st8{clip-path:url(#SVGID_00000080913426998174355310000014922092357489544081_);}
	.st9{filter:url(#Adobe_OpacityMaskFilter);}
	.st10{clip-path:url(#SVGID_00000132795438047713163900000000756529636873923758_);}
	.st11{clip-path:url(#SVGID_00000177486292870105598470000007524194073802363311_);}
	.st12{clip-path:url(#SVGID_00000023981794571846145820000001285787548389497253_);}
	.st13{clip-path:url(#SVGID_00000026874609559216221850000011162474972725280932_);}
	.st14{clip-path:url(#SVGID_00000081613705907540801600000002834451745589997735_);}
	.st15{clip-path:url(#SVGID_00000029744714245820979240000016172774475621706410_);}
	.st16{clip-path:url(#SVGID_00000099656000357982601070000015370702648534781324_);}
	
		.st17{clip-path:url(#SVGID_00000108987158764957332760000002038096583157090466_);fill:url(#SVGID_00000163773206578451993500000017778016662356768159_);}
	
		.st18{clip-path:url(#SVGID_00000132795438047713163900000000756529636873923758_);mask:url(#SVGID_00000095300263114458552050000015590356784444157093_);fill:url(#SVGID_00000073692140838613631570000013863009736480203413_);}
	.st19{fill:url(#SVGID_00000014623664227421597580000014229032156479260830_);}
	.st20{clip-path:url(#SVGID_00000132800924494619319420000004864475121737650358_);}
	.st21{filter:url(#Adobe_OpacityMaskFilter_00000052794953891126365990000009340632528494282678_);}
	.st22{clip-path:url(#SVGID_00000027589895286613042100000000818838555224312489_);}
	.st23{clip-path:url(#SVGID_00000156573682337700734560000013227542349907223990_);}
	.st24{clip-path:url(#SVGID_00000042726683746315935430000012714847334397154997_);}
	.st25{clip-path:url(#SVGID_00000078034070273719190120000010526359758758797710_);}
	.st26{clip-path:url(#SVGID_00000139988416027659525090000008241124326518926761_);}
	.st27{clip-path:url(#SVGID_00000160152391615682169660000018215356827011663280_);}
	.st28{clip-path:url(#SVGID_00000182517035427364891050000015779812997629186237_);}
	
		.st29{clip-path:url(#SVGID_00000101092228984250962130000010479629013244266880_);fill:url(#SVGID_00000107577006077369110610000000744078461902828210_);}
	
		.st30{clip-path:url(#SVGID_00000027589895286613042100000000818838555224312489_);mask:url(#SVGID_00000033334746681940715370000009042837141500165036_);fill:url(#SVGID_00000129167871586252465010000012697867481136955828_);}
	.st31{fill:url(#SVGID_00000180325173172835590280000017708331788184376961_);}
	.st32{fill:url(#SVGID_00000080895244786210886980000006387040355920805809_);}
	.st33{fill:url(#SVGID_00000146478201029033386470000016087316008199251072_);}
	.st34{fill:url(#SVGID_00000147922886458747722280000012266846743350245547_);}
	.st35{fill:#9BD5E4;}
	.st36{fill:#6CC7E2;}
	.st37{fill:#4E8FA1;}
	.st38{fill:#BBE2EE;}
	.st39{fill:#91D3E9;}
	.st40{fill:#5BA4BA;}
	.st41{opacity:0.5;fill:#BBE2EE;enable-background:new    ;}
	.st42{fill:#82B4C5;}
	.st43{clip-path:url(#SVGID_00000073693954481423834010000015042565296279321766_);fill:#FFFFFF;}
	.st44{clip-path:url(#SVGID_00000178191279014668797670000016489856393222272444_);}
	.st45{clip-path:url(#SVGID_00000039824034573571797530000011713203439263576462_);fill:#FBCB96;}
	.st46{clip-path:url(#SVGID_00000087408473130965272550000001001686726935922826_);fill:#FFFFFF;}
	.st47{clip-path:url(#SVGID_00000150822572201121933720000013917473011396763818_);fill:#FFFFFF;}
</style>
<circle class="st0" cx="170.66" cy="193.57" r="143.52"/>
<circle class="st1" cx="170.66" cy="154.94" r="182.15"/>
<g>
	<polygon class="st2" points="219.32,255.49 126.12,255.49 135.61,201.08 209.77,201.08 	"/>
</g>
<polygon class="st2" points="219.32,255.49 172.26,255.49 126.12,255.49 125.71,258.65 172.26,303.68 219.72,258.65 "/>
<g>
	<g>
		<path class="st2" d="M241.25,144c0,0,2.14,0,2.86,0c2.9,0,4.93-5.02,5.79-7.53c1.91-5.58,2.72-10.03,3.01-12.47
			c0.36-3.08-0.6-8.4-4.56-8.4c-4.54,0-7.09,4.64-7.09,4.64L241.25,144L241.25,144z"/>
		<path class="st2" d="M103.26,144c0,0-2.14,0-2.86,0c-2.9,0-4.94-5.02-5.79-7.53c-1.91-5.58-2.74-10.03-3.02-12.47
			c-0.36-3.08,0.6-8.4,4.56-8.4c4.54,0,7.09,4.64,7.09,4.64V144H103.26z"/>
	</g>
	<path class="st2" d="M216.12,38.33c-17.26-13.11-54.5-21.07-86.12,0.21c-26.34,17.72-29.62,49.73-29.62,49.73s0,50.99,0,77.83
		c0,5.1,46.59,57.65,57.07,57.65h29.53c10.48,0,55.99-52.55,55.99-57.65c0-26.84,0-80.76,0-80.76S240.79,57.07,216.12,38.33z"/>
	<path class="st3" d="M123.48,36.1c1.74-13.93,13.19-28.36,50.61-30.47c37.58-2.13,44.27,28.66,64.17,40.32s14.43,37.52,4.73,50.46
		c0,0-0.16-32.16-30.1-33.63c-31.83-1.56-43.68,13.38-67.52,6.77C130.57,65.45,121.43,52.56,123.48,36.1z"/>
	<path class="st3" d="M129.82,30.75c0,0-30.84,9.63-35.69,39.67s6.26,46.62,6.26,46.62s8.04-47.98,43.61-52.71
		C144,64.33,158.18,43.92,129.82,30.75z"/>
	<g>
		<path class="st3" d="M109.25,69.72v50.44c0,22.31-8.86,31-8.86,31v-39.48C100.39,95.8,103.71,81.22,109.25,69.72z"/>
	</g>
	<g>
		<path class="st3" d="M234.04,56.95v63.21c0,22.31,8.95,31,8.95,31V98.89C242.99,83.02,239.63,68.43,234.04,56.95z"/>
	</g>
	<path class="st3" d="M234.04,122.65c0,0,0,10.36,0,34.13c0,14.56-15.3,25.93-39.18,49.8c-4.64,4.64-15.65,5.01-22.35,5.02
		c-6.88-0.03-19.45-0.48-24-5.02c-23.88-23.88-39.18-35.24-39.18-49.8c0-23.77,0-34.13,0-34.13s-3.89,6.22-8.96,14.94v28.52
		c0,5.1,45.51,57.65,55.99,57.65h15.73h1.21h13.68c10.48,0,55.99-52.55,55.99-57.65v-28.52
		C237.92,128.87,234.04,122.65,234.04,122.65z"/>
	<path class="st3" d="M202.58,171.9c-18.41-13.93-29.23-2.99-29.23-2.99s-10.82-10.94-29.23,2.99
		c-11.65,8.82-13.79,19.46-13.79,19.46l4.96,6.03c0,0,7.58-29.35,38.06-19.15c29.1-8.21,38.06,19.15,38.06,19.15l4.96-6.03
		C216.36,191.36,214.22,180.7,202.58,171.9z"/>
	<g>
		<path class="st3" d="M200.95,182.64c0,0,6.22,14.06-6.09,23.94l20.08-13.51L200.95,182.64z"/>
		<path class="st3" d="M144.34,182.64c0,0-6.88,15.07,5.44,24.97l-19.43-14.54L144.34,182.64z"/>
	</g>
	<g class="st4">
		<g>
			<path class="st5" d="M148.39,67.25c-4.52-1.43-8.7-4-12.22-7.35c-1.78-1.67-3.3-3.6-4.61-5.69c-1.29-2.1-2.27-4.41-2.92-6.8
				c-0.61-2.41-0.88-4.89-0.81-7.36c0.12-2.46,0.49-4.89,1.2-7.21c1.37-4.65,3.73-8.9,6.67-12.6c-1.87,4.34-3.53,8.69-4.4,13.15
				c-0.86,4.45-0.94,9,0.23,13.26c1.09,4.28,3.39,8.22,6.33,11.65C140.84,61.72,144.41,64.72,148.39,67.25z"/>
		</g>
		<g>
			<path class="st5" d="M196.45,60.35c-1.48-3.33-2.26-6.95-2.54-10.63s0.04-7.44,1.11-11.07c0.58-1.8,1.31-3.56,2.28-5.2
				c0.99-1.62,2.16-3.16,3.55-4.45c2.76-2.62,6.24-4.32,9.81-4.97c-3.14,1.83-5.95,3.95-8.12,6.57c-2.16,2.62-3.71,5.66-4.66,8.9
				c-1.01,3.25-1.45,6.69-1.65,10.18C196.07,53.19,196.17,56.73,196.45,60.35z"/>
		</g>
		<g>
			<path class="st5" d="M191.42,61.66c-2.01-3.68-3.2-7.77-3.87-11.94c-0.66-4.17-0.65-8.5,0.08-12.73c0.4-2.1,0.97-4.18,1.75-6.2
				c0.82-1.98,1.78-3.93,3-5.69c2.39-3.56,5.57-6.54,9.21-8.59c-2.87,3.03-5.35,6.26-7.21,9.79c-1.85,3.53-3.13,7.31-3.81,11.21
				c-0.73,3.9-0.87,7.92-0.7,11.97C190.07,53.51,190.58,57.57,191.42,61.66z"/>
		</g>
		<g>
			<path class="st5" d="M185.63,62.58c-2.22-3.97-3.72-8.32-4.76-12.75c-1.05-4.45-1.53-9.06-1.39-13.67
				c0.1-2.3,0.34-4.61,0.77-6.89c0.47-2.27,1.06-4.52,1.94-6.66c1.69-4.3,4.27-8.27,7.64-11.32c-2.4,3.85-4.24,7.87-5.44,12.07
				c-1.19,4.2-1.81,8.53-1.93,12.9c-0.17,4.37,0.14,8.76,0.7,13.15C183.75,53.8,184.56,58.18,185.63,62.58z"/>
		</g>
		<g>
			<path class="st5" d="M166.97,67.25c-3.71-3.56-6.58-7.98-8.76-12.69c-2.19-4.72-3.55-9.86-4-15.09
				c-0.19-2.62-0.15-5.26,0.13-7.87c0.33-2.6,0.83-5.19,1.65-7.67c1.57-4.98,4.09-9.61,7.35-13.57c-2.2,4.62-4.01,9.33-5.09,14.18
				c-1.07,4.84-1.47,9.8-1.06,14.7c0.36,4.91,1.5,9.75,3.17,14.45C162.07,58.36,164.25,62.92,166.97,67.25z"/>
		</g>
		<g>
			<path class="st5" d="M172.29,66.31c-3.25-3.8-5.57-8.37-7.19-13.14c-1.63-4.78-2.43-9.88-2.4-14.97c0.05-2.55,0.29-5.09,0.75-7.6
				c0.5-2.5,1.13-4.96,2.06-7.32c1.78-4.74,4.36-9.14,7.61-12.92c-2.2,4.47-4.1,8.98-5.38,13.64c-1.29,4.65-2.02,9.44-2.04,14.22
				c-0.09,4.8,0.53,9.59,1.65,14.3C168.48,57.22,170.09,61.85,172.29,66.31z"/>
		</g>
		<g>
			<path class="st5" d="M153.55,67.9c-4.28-2.42-8.01-5.83-11.11-9.74s-5.46-8.51-6.69-13.46c-0.58-2.47-0.89-5.02-0.87-7.57
				c0.05-2.54,0.37-5.08,1.04-7.51c1.29-4.88,3.72-9.34,6.84-13.11c-2.08,4.44-3.78,8.96-4.58,13.61
				c-0.78,4.64-0.69,9.36,0.45,13.87c1.07,4.53,3.12,8.82,5.68,12.81C146.93,60.78,150.03,64.5,153.55,67.9z"/>
		</g>
		<g>
			<path class="st5" d="M178.63,64.07c-2.82-3.97-4.61-8.63-5.74-13.4c-1.13-4.78-1.46-9.78-1.09-14.7c0.22-2.46,0.6-4.9,1.16-7.31
				c0.6-2.4,1.3-4.76,2.23-7.03c1.82-4.56,4.29-8.83,7.38-12.58c-2.02,4.4-3.83,8.82-5.18,13.35c-1.33,4.52-2.26,9.14-2.6,13.81
				c-0.4,4.66-0.23,9.37,0.4,14.04C175.84,54.91,176.92,59.55,178.63,64.07z"/>
		</g>
		<g>
			<path class="st5" d="M161.27,67.25c-4.53-2.1-8.33-5.77-11.11-10.04c-1.41-2.14-2.48-4.48-3.35-6.9
				c-0.83-2.43-1.36-4.96-1.66-7.5c-0.25-2.55-0.27-5.11-0.07-7.64c0.25-2.53,0.64-5.03,1.3-7.47c1.25-4.88,3.2-9.52,5.75-13.8
				c-1.41,4.76-2.69,9.49-3.48,14.28c-0.76,4.77-1.09,9.59-0.54,14.31c0.47,4.72,1.84,9.33,4.04,13.55
				C154.41,60.24,157.43,64.11,161.27,67.25z"/>
		</g>
		<g>
			<path class="st5" d="M127.89,64.07c-3.98-2.65-7.72-5.12-11.73-7.06c-2.01-0.97-4.04-1.8-6.18-2.45
				c-2.14-0.66-4.35-1.11-6.72-1.49c2.26-0.87,4.75-1.06,7.19-0.81c2.44,0.26,4.83,1,7.02,2.07c2.2,1.07,4.22,2.46,5.99,4.09
				C125.22,60.06,126.81,61.91,127.89,64.07z"/>
		</g>
		<g>
			<path class="st5" d="M124.35,67.25c-1.9-1.21-3.76-2.21-5.67-3.08c-1.9-0.87-3.83-1.6-5.81-2.2c-1.97-0.6-3.99-1.08-6.07-1.46
				c-2.08-0.4-4.21-0.68-6.43-1.08c2.1-0.84,4.35-1.21,6.62-1.25c2.27-0.03,4.56,0.27,6.75,0.95c2.19,0.66,4.28,1.69,6.12,3.05
				C121.7,63.52,123.37,65.18,124.35,67.25z"/>
		</g>
		<g>
			<path class="st5" d="M121.18,69.72c-2.14-0.66-4.17-1.23-6.21-1.68c-2.04-0.46-4.05-0.77-6.09-0.94
				c-2.03-0.16-4.06-0.17-6.14-0.02c-2.07,0.14-4.15,0.48-6.38,0.82c3.42-2.93,8.2-4.15,12.75-3.77c2.29,0.19,4.52,0.77,6.59,1.7
				C117.76,66.78,119.71,68,121.18,69.72z"/>
		</g>
		<g>
			<path class="st5" d="M117.64,73.89c-1.91-0.19-3.67-0.29-5.43-0.33c-1.75-0.04-3.48-0.01-5.2,0.09
				c-1.72,0.11-3.44,0.28-5.19,0.51c-1.75,0.22-3.52,0.52-5.45,0.72c1.39-1.33,3.07-2.29,4.85-2.99s3.68-1.11,5.61-1.22
				c1.92-0.12,3.87,0.07,5.73,0.58C114.4,71.78,116.21,72.56,117.64,73.89z"/>
		</g>
		<g>
			<path class="st5" d="M115.58,78.25c-3.57,0.46-6.76,0.84-9.88,1.61c-1.56,0.38-3.08,0.85-4.6,1.43
				c-1.54,0.57-3.04,1.26-4.72,1.99c1.67-3.27,5.06-5.46,8.61-6.32c1.79-0.44,3.64-0.56,5.45-0.37
				C112.23,76.81,114.02,77.27,115.58,78.25z"/>
		</g>
		<g>
			<path class="st5" d="M130.51,61.09c-1.09-1.83-2.17-3.51-3.35-5.09c-1.17-1.58-2.42-3.03-3.79-4.34s-2.87-2.48-4.51-3.52
				c-1.63-1.06-3.42-1.94-5.33-2.91c4.25-0.52,8.73,1.22,11.9,4.27c1.59,1.53,2.87,3.36,3.76,5.33
				C130.05,56.82,130.63,58.93,130.51,61.09z"/>
		</g>
		<g>
			<path class="st5" d="M206.09,59.21c-1.71-2.53-2.77-5.47-3.3-8.52c-0.52-3.05-0.49-6.29,0.36-9.37c0.83-3.08,2.53-5.96,4.81-8.15
				c2.27-2.2,5.06-3.74,7.99-4.53c-2.38,1.9-4.54,3.85-6.26,6.08s-2.92,4.73-3.66,7.39c-0.73,2.66-0.99,5.48-0.93,8.35
				C205.17,53.33,205.53,56.24,206.09,59.21z"/>
		</g>
		<g>
			<path class="st5" d="M214.07,59.21c-1.18-2.09-1.83-4.4-2.23-6.76c-0.37-2.36-0.44-4.8-0.05-7.21c0.37-2.41,1.19-4.83,2.59-6.9
				c1.39-2.06,3.39-3.74,5.67-4.48c-1.58,1.8-2.79,3.63-3.62,5.62c-0.84,1.98-1.36,4.06-1.7,6.21
				C214.06,50.01,214.13,54.47,214.07,59.21z"/>
		</g>
		<g>
			<path class="st5" d="M220.8,59.21c-1.11-1.57-1.74-3.39-2.11-5.26c-0.35-1.87-0.37-3.86,0.07-5.81c0.43-1.94,1.39-3.87,2.88-5.27
				c1.48-1.41,3.41-2.24,5.32-2.29c-1.47,1.23-2.68,2.43-3.53,3.8c-0.86,1.36-1.41,2.84-1.77,4.42s-0.53,3.26-0.64,4.99
				C220.9,55.53,220.89,57.31,220.8,59.21z"/>
		</g>
		<g>
			<path class="st5" d="M226.95,61.66c-1.14-1.19-1.83-2.69-2.23-4.28c-0.38-1.59-0.41-3.35,0.07-5.03
				c0.47-1.69,1.53-3.26,2.91-4.28c1.39-1.02,3.03-1.56,4.66-1.51c-1.19,1.12-2.24,2.11-3.03,3.2c-0.8,1.08-1.33,2.2-1.69,3.42
				c-0.36,1.23-0.53,2.56-0.61,3.97C226.96,58.56,226.97,60.03,226.95,61.66z"/>
		</g>
		<g>
			<path class="st5" d="M231.24,64.07c-0.71-1.35-0.84-2.91-0.65-4.4c0.2-1.49,0.75-2.96,1.59-4.24s1.96-2.35,3.25-3.14
				c1.29-0.77,2.7-1.28,4.22-1.33c-0.96,1.17-1.89,2.14-2.71,3.13c-0.84,0.98-1.58,1.96-2.26,2.98c-0.68,1.01-1.28,2.08-1.83,3.24
				C232.27,61.47,231.76,62.68,231.24,64.07z"/>
		</g>
		<g>
			<path class="st5" d="M235.42,69.29c-0.72-1.53-0.81-3.25-0.54-4.93c0.28-1.68,1.02-3.32,2.14-4.68c1.11-1.35,2.58-2.4,4.16-3
				c1.59-0.6,3.26-0.83,4.9-0.56c-1.37,0.95-2.65,1.73-3.78,2.62c-1.14,0.87-2.13,1.8-2.99,2.83
				C237.59,63.67,236.46,66.19,235.42,69.29z"/>
		</g>
		<g>
			<path class="st5" d="M237.77,75.45c-0.43-1.54-0.23-3.14,0.23-4.63c0.47-1.49,1.26-2.89,2.29-4.09c1.02-1.2,2.28-2.18,3.66-2.89
				c1.38-0.7,2.89-1.14,4.46-1.14c-1.08,1.14-2.13,2.08-3.11,3.06c-0.98,0.96-1.9,1.92-2.76,2.91s-1.67,2.04-2.44,3.15
				C239.31,72.96,238.56,74.12,237.77,75.45z"/>
		</g>
	</g>
</g>
<g>
	
		<linearGradient id="SVGID_1_" gradientUnits="userSpaceOnUse" x1="171.818" y1="960.7454" x2="171.936" y2="967.3599" gradientTransform="matrix(1 0 0 1 0 -850.0001)">
		<stop  offset="0" style="stop-color:#3C3C3B"/>
		<stop  offset="0.621" style="stop-color:#242423"/>
		<stop  offset="1" style="stop-color:#000000"/>
	</linearGradient>
	<path class="st6" d="M171.88,110.85c-0.12-0.02-0.25-0.03-0.37-0.02l-0.16,0.01l-0.16-0.01c-0.12,0-0.24,0-0.36,0.02
		c-2.03,0.07-4.62,0.22-7.6,0.51v6.17c3.13-0.32,5.84-0.47,7.96-0.53c0.04,0,0.08,0,0.12-0.01c0.02,0,0.05,0,0.08,0
		c0.04,0,0.08,0.01,0.12,0.01c2.36,0.08,5.45,0.25,9.03,0.65v-6.18C177.1,111.1,174.14,110.92,171.88,110.85z"/>
</g>
<path class="st7" d="M211.46,104.06v-0.01c-0.07,0-0.14,0-0.22,0.01c-0.07,0-0.14-0.01-0.22-0.01v0.01
	c-9.72,0.31-22.5,2.06-34.57,6.45c0,0,4.02,11.88,6.03,20.86s10.04,14.15,16.92,14.15h11.62h0.44h11.62
	c6.89,0,14.92-5.17,16.92-14.15c2.01-8.98,6.03-20.86,6.03-20.86C233.96,106.12,221.18,104.36,211.46,104.06z"/>
<path class="st7" d="M131.25,104.06v-0.01c-0.07,0-0.14,0-0.22,0.01c-0.07,0-0.14-0.01-0.22-0.01v0.01
	c-9.72,0.31-22.5,2.06-34.57,6.45c0,0,4.01,11.88,6.03,20.86c2.01,8.98,10.04,14.15,16.92,14.15h11.62h0.43h11.62
	c6.89,0,14.92-5.17,16.92-14.15c2.01-8.98,6.03-20.86,6.03-20.86C153.75,106.12,140.96,104.36,131.25,104.06z"/>
<g>
	<g>
		<g>
			<defs>
				<polygon id="SVGID_00000140706084127669947200000013333953679405203869_" points="-13.98,-29.18 -12.89,-29.18 -13.98,-28.09 
									"/>
			</defs>
			<clipPath id="SVGID_00000121995443727407835300000018278093371780292754_">
				<use xlink:href="#SVGID_00000140706084127669947200000013333953679405203869_"  style="overflow:visible;"/>
			</clipPath>
		</g>
		<g>
			<defs>
				<polygon id="SVGID_00000155127780113803766340000005282211854285022653_" points="-13.98,-29.18 -12.89,-29.18 -13.98,-28.09 
									"/>
			</defs>
			<defs>
				<polygon id="SVGID_00000036962879428005833980000014097154966114973576_" points="-16.16,-31.36 -17.25,-31.36 -16.16,-32.45 
									"/>
			</defs>
			<clipPath id="SVGID_00000114057441104743299230000014138715277149217945_">
				<use xlink:href="#SVGID_00000155127780113803766340000005282211854285022653_"  style="overflow:visible;"/>
			</clipPath>
			
				<clipPath id="SVGID_00000013875250934499327600000014606469527024918166_" style="clip-path:url(#SVGID_00000114057441104743299230000014138715277149217945_);">
				<use xlink:href="#SVGID_00000036962879428005833980000014097154966114973576_"  style="overflow:visible;"/>
			</clipPath>
			<defs>
				<filter id="Adobe_OpacityMaskFilter" filterUnits="userSpaceOnUse" x="101.45" y="112.05" width="59.14" height="14.9">
					<feColorMatrix  type="matrix" values="1 0 0 0 0  0 1 0 0 0  0 0 1 0 0  0 0 0 1 0"/>
				</filter>
			</defs>
			
				<mask maskUnits="userSpaceOnUse" x="101.45" y="112.05" width="59.14" height="14.9" id="SVGID_00000095300263114458552050000015590356784444157093_">
				<g class="st9">
					<g>
						<g>
							<defs>
								<polygon id="SVGID_00000169519322803756056400000007407138036219693238_" points="-13.98,-29.18 -12.89,-29.18 
									-13.98,-28.09 								"/>
							</defs>
							<defs>
								<polygon id="SVGID_00000086690034819137983740000010929103036946566546_" points="-16.16,-31.36 -17.25,-31.36 
									-16.16,-32.45 								"/>
							</defs>
							
								<clipPath id="SVGID_00000067942927547312265610000006433045111353138102_" style="clip-path:url(#SVGID_00000013875250934499327600000014606469527024918166_);">
								<use xlink:href="#SVGID_00000169519322803756056400000007407138036219693238_"  style="overflow:visible;"/>
							</clipPath>
							
								<clipPath id="SVGID_00000181805351536985126020000014544548334377041819_" style="clip-path:url(#SVGID_00000067942927547312265610000006433045111353138102_);">
								<use xlink:href="#SVGID_00000086690034819137983740000010929103036946566546_"  style="overflow:visible;"/>
							</clipPath>
						</g>
						<g>
							<defs>
								<polygon id="SVGID_00000097479561482089508890000009995512572234438556_" points="-13.98,-29.18 -12.89,-29.18 
									-13.98,-28.09 								"/>
							</defs>
							<defs>
								<polygon id="SVGID_00000021093321381533195520000008836609358005291136_" points="-16.16,-31.36 -17.25,-31.36 
									-16.16,-32.45 								"/>
							</defs>
							<defs>
								<polygon id="SVGID_00000134234369307728810850000001543841642994287246_" points="-13.98,-29.18 -12.89,-29.18 
									-13.98,-28.09 								"/>
							</defs>
							
								<clipPath id="SVGID_00000029047595919392380750000013297103319767695497_" style="clip-path:url(#SVGID_00000013875250934499327600000014606469527024918166_);">
								<use xlink:href="#SVGID_00000097479561482089508890000009995512572234438556_"  style="overflow:visible;"/>
							</clipPath>
							
								<clipPath id="SVGID_00000168805935958959142560000014118535854168208059_" style="clip-path:url(#SVGID_00000029047595919392380750000013297103319767695497_);">
								<use xlink:href="#SVGID_00000021093321381533195520000008836609358005291136_"  style="overflow:visible;"/>
							</clipPath>
							
								<clipPath id="SVGID_00000051345375238649476650000008616697342107717011_" style="clip-path:url(#SVGID_00000168805935958959142560000014118535854168208059_);">
								<use xlink:href="#SVGID_00000134234369307728810850000001543841642994287246_"  style="overflow:visible;"/>
							</clipPath>
						</g>
						<g>
							<defs>
								<polygon id="SVGID_00000012471246371468337440000008243728528807259831_" points="-13.98,-29.18 -12.89,-29.18 
									-13.98,-28.09 								"/>
							</defs>
							<defs>
								<polygon id="SVGID_00000008147390741607677290000014035127314756642736_" points="-16.16,-31.36 -17.25,-31.36 
									-16.16,-32.45 								"/>
							</defs>
							<defs>
								<polygon id="SVGID_00000032622645757280885040000010743201642609525650_" points="-13.98,-29.18 -12.89,-29.18 
									-13.98,-28.09 								"/>
							</defs>
							<defs>
								<polygon id="SVGID_00000058552049659430518910000012462347048090396838_" points="-16.16,-31.36 -17.25,-31.36 
									-16.16,-32.45 								"/>
							</defs>
							
								<clipPath id="SVGID_00000085240709210492915340000011253348828944153746_" style="clip-path:url(#SVGID_00000013875250934499327600000014606469527024918166_);">
								<use xlink:href="#SVGID_00000012471246371468337440000008243728528807259831_"  style="overflow:visible;"/>
							</clipPath>
							
								<clipPath id="SVGID_00000090265986710782232600000012665218430466335120_" style="clip-path:url(#SVGID_00000085240709210492915340000011253348828944153746_);">
								<use xlink:href="#SVGID_00000008147390741607677290000014035127314756642736_"  style="overflow:visible;"/>
							</clipPath>
							
								<clipPath id="SVGID_00000069395193552807501490000016333454242069997996_" style="clip-path:url(#SVGID_00000090265986710782232600000012665218430466335120_);">
								<use xlink:href="#SVGID_00000032622645757280885040000010743201642609525650_"  style="overflow:visible;"/>
							</clipPath>
							
								<clipPath id="SVGID_00000105393142861655057070000012624250113506278816_" style="clip-path:url(#SVGID_00000069395193552807501490000016333454242069997996_);">
								<use xlink:href="#SVGID_00000058552049659430518910000012462347048090396838_"  style="overflow:visible;"/>
							</clipPath>
							
								<linearGradient id="SVGID_00000049207851977794994630000008764801449793317045_" gradientUnits="userSpaceOnUse" x1="130.8464" y1="962.1703" x2="131.0827" y2="972.4464" gradientTransform="matrix(1 0 0 1 0 -850.0001)">
								<stop  offset="0" style="stop-color:#FFFFFF"/>
								<stop  offset="0.1572" style="stop-color:#DDDDDD"/>
								<stop  offset="0.5063" style="stop-color:#858585"/>
								<stop  offset="1" style="stop-color:#000000"/>
							</linearGradient>
							
								<path style="clip-path:url(#SVGID_00000105393142861655057070000012624250113506278816_);fill:url(#SVGID_00000049207851977794994630000008764801449793317045_);" d="
								M125.94,123.37c2.7-0.24,4.9-0.44,4.9-0.45c0,0,0.03-0.01,0.07,0c0.03,0,0.15,0,0.19,0c0.03,0,0.12,0,0.12,0
								s2.21,0.21,4.9,0.45l18.5,3.45c2.64,0.62,5.11-1.07,5.49-3.75c0,0,0.29-1.95,0.47-3.2c0.17-1.25-1.84-2.8-4.47-3.45l-20-3.91
								c-2.7-0.25-4.9-0.45-4.9-0.46c0,0-0.03-0.01-0.07,0c-0.03,0-0.15,0-0.19,0c-0.03,0-0.12,0-0.12,0s-2.21,0.21-4.9,0.46
								l-20,3.91c-2.63,0.65-4.64,2.2-4.47,3.45s3.32,7.57,5.96,6.95L125.94,123.37z"/>
						</g>
					</g>
				</g>
			</mask>
			
				<linearGradient id="SVGID_00000175308056419590842690000013394420995789608343_" gradientUnits="userSpaceOnUse" x1="130.8464" y1="962.1703" x2="131.0827" y2="972.4464" gradientTransform="matrix(1 0 0 1 0 -850.0001)">
				<stop  offset="0" style="stop-color:#FFFFFF"/>
				<stop  offset="0.1572" style="stop-color:#DDDDDD"/>
				<stop  offset="0.5063" style="stop-color:#858585"/>
				<stop  offset="1" style="stop-color:#000000"/>
			</linearGradient>
			
				<path style="clip-path:url(#SVGID_00000013875250934499327600000014606469527024918166_);mask:url(#SVGID_00000095300263114458552050000015590356784444157093_);fill:url(#SVGID_00000175308056419590842690000013394420995789608343_);" d="
				M125.94,123.37c2.7-0.24,4.9-0.44,4.9-0.45c0,0,0.03-0.01,0.07,0c0.03,0,0.15,0,0.19,0c0.03,0,0.12,0,0.12,0s2.21,0.21,4.9,0.45
				l18.5,3.45c2.64,0.62,5.11-1.07,5.49-3.75c0,0,0.29-1.95,0.47-3.2c0.17-1.25-1.84-2.8-4.47-3.45l-20-3.91
				c-2.7-0.25-4.9-0.45-4.9-0.46c0,0-0.03-0.01-0.07,0c-0.03,0-0.15,0-0.19,0c-0.03,0-0.12,0-0.12,0s-2.21,0.21-4.9,0.46l-20,3.91
				c-2.63,0.65-4.64,2.2-4.47,3.45s3.32,7.57,5.96,6.95L125.94,123.37z"/>
		</g>
	</g>
</g>
<linearGradient id="SVGID_00000115501767107709368830000004253318287743313073_" gradientUnits="userSpaceOnUse" x1="130.8464" y1="962.1703" x2="131.0827" y2="972.4464" gradientTransform="matrix(1 0 0 1 0 -850.0001)">
	<stop  offset="0" style="stop-color:#FFFFFF"/>
	<stop  offset="1" style="stop-color:#FFFFFF"/>
</linearGradient>
<path style="fill:url(#SVGID_00000115501767107709368830000004253318287743313073_);" d="M125.94,123.37c2.7-0.24,4.9-0.44,4.9-0.45
	c0,0,0.03-0.01,0.07,0c0.03,0,0.15,0,0.19,0c0.03,0,0.12,0,0.12,0s2.21,0.21,4.9,0.45l18.5,3.45c2.64,0.62,5.11-1.07,5.49-3.75
	c0,0,0.29-1.95,0.47-3.2c0.17-1.25-1.84-2.8-4.47-3.45l-20-3.91c-2.7-0.25-4.9-0.45-4.9-0.46c0,0-0.03-0.01-0.07,0
	c-0.03,0-0.15,0-0.19,0c-0.03,0-0.12,0-0.12,0s-2.21,0.21-4.9,0.46l-20,3.91c-2.63,0.65-4.64,2.2-4.47,3.45s3.32,7.57,5.96,6.95
	L125.94,123.37z"/>
<g>
	<g>
		<g>
			<defs>
				<polygon id="SVGID_00000028315095924852418300000006906357863729688247_" points="-13.98,-29.18 -12.89,-29.18 -13.98,-28.09 
									"/>
			</defs>
			<clipPath id="SVGID_00000119086697576453871660000011106548355391506594_">
				<use xlink:href="#SVGID_00000028315095924852418300000006906357863729688247_"  style="overflow:visible;"/>
			</clipPath>
		</g>
		<g>
			<defs>
				<polygon id="SVGID_00000058578987649490339870000004230251279914185379_" points="-13.98,-29.18 -12.89,-29.18 -13.98,-28.09 
									"/>
			</defs>
			<defs>
				<polygon id="SVGID_00000181088919893927522970000001654143524851730076_" points="-16.16,-31.36 -17.25,-31.36 -16.16,-32.45 
									"/>
			</defs>
			<clipPath id="SVGID_00000118359535316829176340000016962453584514249629_">
				<use xlink:href="#SVGID_00000058578987649490339870000004230251279914185379_"  style="overflow:visible;"/>
			</clipPath>
			
				<clipPath id="SVGID_00000029758962884066870980000014857492919074334141_" style="clip-path:url(#SVGID_00000118359535316829176340000016962453584514249629_);">
				<use xlink:href="#SVGID_00000181088919893927522970000001654143524851730076_"  style="overflow:visible;"/>
			</clipPath>
			<defs>
				
					<filter id="Adobe_OpacityMaskFilter_00000113345289171200463430000004271407623418976159_" filterUnits="userSpaceOnUse" x="181.66" y="112.05" width="59.14" height="14.9">
					<feColorMatrix  type="matrix" values="1 0 0 0 0  0 1 0 0 0  0 0 1 0 0  0 0 0 1 0"/>
				</filter>
			</defs>
			
				<mask maskUnits="userSpaceOnUse" x="181.66" y="112.05" width="59.14" height="14.9" id="SVGID_00000033334746681940715370000009042837141500165036_">
				<g style="filter:url(#Adobe_OpacityMaskFilter_00000113345289171200463430000004271407623418976159_);">
					<g>
						<g>
							<defs>
								<polygon id="SVGID_00000043452471672049354380000006640297979986196657_" points="-13.98,-29.18 -12.89,-29.18 
									-13.98,-28.09 								"/>
							</defs>
							<defs>
								<polygon id="SVGID_00000002354849853470988570000004162909793891263917_" points="-16.16,-31.36 -17.25,-31.36 
									-16.16,-32.45 								"/>
							</defs>
							
								<clipPath id="SVGID_00000113350788362987026500000014597801872636085128_" style="clip-path:url(#SVGID_00000029758962884066870980000014857492919074334141_);">
								<use xlink:href="#SVGID_00000043452471672049354380000006640297979986196657_"  style="overflow:visible;"/>
							</clipPath>
							
								<clipPath id="SVGID_00000176752985321377082680000008579057505683245483_" style="clip-path:url(#SVGID_00000113350788362987026500000014597801872636085128_);">
								<use xlink:href="#SVGID_00000002354849853470988570000004162909793891263917_"  style="overflow:visible;"/>
							</clipPath>
						</g>
						<g>
							<defs>
								<polygon id="SVGID_00000114776022074358007260000015557642143528827533_" points="-13.98,-29.18 -12.89,-29.18 
									-13.98,-28.09 								"/>
							</defs>
							<defs>
								<polygon id="SVGID_00000116937020860829812160000005932223387276070823_" points="-16.16,-31.36 -17.25,-31.36 
									-16.16,-32.45 								"/>
							</defs>
							<defs>
								<polygon id="SVGID_00000032640083085158496340000001348094330828157104_" points="-13.98,-29.18 -12.89,-29.18 
									-13.98,-28.09 								"/>
							</defs>
							
								<clipPath id="SVGID_00000024720604994415943450000001647046564422300041_" style="clip-path:url(#SVGID_00000029758962884066870980000014857492919074334141_);">
								<use xlink:href="#SVGID_00000114776022074358007260000015557642143528827533_"  style="overflow:visible;"/>
							</clipPath>
							
								<clipPath id="SVGID_00000144306767192587398210000003395401595727253387_" style="clip-path:url(#SVGID_00000024720604994415943450000001647046564422300041_);">
								<use xlink:href="#SVGID_00000116937020860829812160000005932223387276070823_"  style="overflow:visible;"/>
							</clipPath>
							
								<clipPath id="SVGID_00000134228594886471723010000009866477856232119731_" style="clip-path:url(#SVGID_00000144306767192587398210000003395401595727253387_);">
								<use xlink:href="#SVGID_00000032640083085158496340000001348094330828157104_"  style="overflow:visible;"/>
							</clipPath>
						</g>
						<g>
							<defs>
								<polygon id="SVGID_00000049198247824300566190000000688888733589851015_" points="-13.98,-29.18 -12.89,-29.18 
									-13.98,-28.09 								"/>
							</defs>
							<defs>
								<polygon id="SVGID_00000050628631989233705770000005820469629276056239_" points="-16.16,-31.36 -17.25,-31.36 
									-16.16,-32.45 								"/>
							</defs>
							<defs>
								<polygon id="SVGID_00000171679208178946527820000009407726022210560434_" points="-13.98,-29.18 -12.89,-29.18 
									-13.98,-28.09 								"/>
							</defs>
							<defs>
								<polygon id="SVGID_00000004537064228264280200000007980009520268975280_" points="-16.16,-31.36 -17.25,-31.36 
									-16.16,-32.45 								"/>
							</defs>
							
								<clipPath id="SVGID_00000154405992693016560580000009368947205381798025_" style="clip-path:url(#SVGID_00000029758962884066870980000014857492919074334141_);">
								<use xlink:href="#SVGID_00000049198247824300566190000000688888733589851015_"  style="overflow:visible;"/>
							</clipPath>
							
								<clipPath id="SVGID_00000006697230188345988090000002924918755147261093_" style="clip-path:url(#SVGID_00000154405992693016560580000009368947205381798025_);">
								<use xlink:href="#SVGID_00000050628631989233705770000005820469629276056239_"  style="overflow:visible;"/>
							</clipPath>
							
								<clipPath id="SVGID_00000022555091467595903220000018445933197768694189_" style="clip-path:url(#SVGID_00000006697230188345988090000002924918755147261093_);">
								<use xlink:href="#SVGID_00000171679208178946527820000009407726022210560434_"  style="overflow:visible;"/>
							</clipPath>
							
								<clipPath id="SVGID_00000172416300486673278360000000251129139483471007_" style="clip-path:url(#SVGID_00000022555091467595903220000018445933197768694189_);">
								<use xlink:href="#SVGID_00000004537064228264280200000007980009520268975280_"  style="overflow:visible;"/>
							</clipPath>
							
								<linearGradient id="SVGID_00000010308494527482821230000015548291492640400061_" gradientUnits="userSpaceOnUse" x1="210.9744" y1="962.0522" x2="211.3287" y2="972.6827" gradientTransform="matrix(1 0 0 1 0 -850.0001)">
								<stop  offset="0" style="stop-color:#FFFFFF"/>
								<stop  offset="0.143" style="stop-color:#D9D9D9"/>
								<stop  offset="0.7404" style="stop-color:#3E3E3E"/>
								<stop  offset="1" style="stop-color:#000000"/>
							</linearGradient>
							
								<path style="clip-path:url(#SVGID_00000172416300486673278360000000251129139483471007_);fill:url(#SVGID_00000010308494527482821230000015548291492640400061_);" d="
								M206.15,123.37c2.7-0.24,4.9-0.44,4.9-0.45c0,0,0.03-0.01,0.07,0c0.03,0,0.15,0,0.19,0c0.03,0,0.12,0,0.12,0
								s2.21,0.21,4.9,0.45l18.5,3.45c2.64,0.62,5.11-1.07,5.49-3.75c0,0,0.29-1.95,0.47-3.2c0.17-1.25-1.84-2.8-4.47-3.45l-20-3.91
								c-2.7-0.25-4.9-0.45-4.9-0.46c0,0-0.03-0.01-0.07,0c-0.03,0-0.15,0-0.19,0c-0.03,0-0.12,0-0.12,0s-2.21,0.21-4.9,0.46
								l-20,3.91c-2.63,0.65-4.64,2.2-4.47,3.45s3.32,7.57,5.96,6.95L206.15,123.37z"/>
						</g>
					</g>
				</g>
			</mask>
			
				<linearGradient id="SVGID_00000072268557998910816140000016346792385298958980_" gradientUnits="userSpaceOnUse" x1="210.9744" y1="962.0522" x2="211.3287" y2="972.6827" gradientTransform="matrix(1 0 0 1 0 -850.0001)">
				<stop  offset="0" style="stop-color:#FFFFFF"/>
				<stop  offset="0.143" style="stop-color:#D9D9D9"/>
				<stop  offset="0.7404" style="stop-color:#3E3E3E"/>
				<stop  offset="1" style="stop-color:#000000"/>
			</linearGradient>
			
				<path style="clip-path:url(#SVGID_00000029758962884066870980000014857492919074334141_);mask:url(#SVGID_00000033334746681940715370000009042837141500165036_);fill:url(#SVGID_00000072268557998910816140000016346792385298958980_);" d="
				M206.15,123.37c2.7-0.24,4.9-0.44,4.9-0.45c0,0,0.03-0.01,0.07,0c0.03,0,0.15,0,0.19,0c0.03,0,0.12,0,0.12,0s2.21,0.21,4.9,0.45
				l18.5,3.45c2.64,0.62,5.11-1.07,5.49-3.75c0,0,0.29-1.95,0.47-3.2c0.17-1.25-1.84-2.8-4.47-3.45l-20-3.91
				c-2.7-0.25-4.9-0.45-4.9-0.46c0,0-0.03-0.01-0.07,0c-0.03,0-0.15,0-0.19,0c-0.03,0-0.12,0-0.12,0s-2.21,0.21-4.9,0.46l-20,3.91
				c-2.63,0.65-4.64,2.2-4.47,3.45s3.32,7.57,5.96,6.95L206.15,123.37z"/>
		</g>
	</g>
</g>
<linearGradient id="SVGID_00000152972704131826208940000007637672735648916647_" gradientUnits="userSpaceOnUse" x1="210.9744" y1="962.0522" x2="211.3287" y2="972.6827" gradientTransform="matrix(1 0 0 1 0 -850.0001)">
	<stop  offset="0" style="stop-color:#FFFFFF"/>
	<stop  offset="1" style="stop-color:#FFFFFF"/>
</linearGradient>
<path style="fill:url(#SVGID_00000152972704131826208940000007637672735648916647_);" d="M206.15,123.37c2.7-0.24,4.9-0.44,4.9-0.45
	c0,0,0.03-0.01,0.07,0c0.03,0,0.15,0,0.19,0c0.03,0,0.12,0,0.12,0s2.21,0.21,4.9,0.45l18.5,3.45c2.64,0.62,5.11-1.07,5.49-3.75
	c0,0,0.29-1.95,0.47-3.2c0.17-1.25-1.84-2.8-4.47-3.45l-20-3.91c-2.7-0.25-4.9-0.45-4.9-0.46c0,0-0.03-0.01-0.07,0
	c-0.03,0-0.15,0-0.19,0c-0.03,0-0.12,0-0.12,0s-2.21,0.21-4.9,0.46l-20,3.91c-2.63,0.65-4.64,2.2-4.47,3.45s3.32,7.57,5.96,6.95
	L206.15,123.37z"/>
<g>
	
		<linearGradient id="SVGID_00000058553308141410013960000008477495630736269733_" gradientUnits="userSpaceOnUse" x1="94.5195" y1="961.8676" x2="167.4459" y2="961.8676" gradientTransform="matrix(1 0 0 1 0 -850.0001)">
		<stop  offset="0" style="stop-color:#3C3C3B"/>
		<stop  offset="0.621" style="stop-color:#242423"/>
		<stop  offset="1" style="stop-color:#000000"/>
	</linearGradient>
	<path style="fill:url(#SVGID_00000058553308141410013960000008477495630736269733_);" d="M164.62,119.5h-1.67
		c0.51-1.63,1.02-3.32,1.66-5.3c-8.94-3.07-21.48-5.62-33.42-5.99c-0.04,0-0.27,0-0.32,0c-6.84,0.22-19.53,1.22-33.39,6
		c0.62,1.84,1.12,3.86,1.68,5.45c0,0-2.01-0.46-2.72-2.34c-0.73-1.93-1.26-3.15-1.79-4.48c-0.35-0.88,0.02-1.87,0.92-2.19
		c14.12-5.14,27.86-6.32,34.94-6.56c0.12-0.02,0.93-0.02,1.05,0c7.08,0.24,20.83,1.42,34.95,6.56c0.89,0.33,1.1,1.04,0.82,1.94
		C166.98,113.62,165.82,116.46,164.62,119.5z"/>
</g>
<g>
	
		<linearGradient id="SVGID_00000147905132666885123260000008791197845993891770_" gradientUnits="userSpaceOnUse" x1="210.5555" y1="954.2868" x2="211.3431" y2="963.1059" gradientTransform="matrix(1 0 0 1 0 -850.0001)">
		<stop  offset="0" style="stop-color:#3C3C3B"/>
		<stop  offset="0.621" style="stop-color:#242423"/>
		<stop  offset="1" style="stop-color:#000000"/>
	</linearGradient>
	<path style="fill:url(#SVGID_00000147905132666885123260000008791197845993891770_);" d="M177.6,119.5h1.67
		c-0.51-1.63-1.02-3.32-1.66-5.3c8.94-3.07,21.48-5.62,33.42-5.99c0.04,0,0.27,0,0.32,0c6.84,0.22,19.53,1.22,33.39,6
		c-0.62,1.84-1.12,3.86-1.68,5.45c0,0,2.01-0.46,2.72-2.34c0.73-1.93,1.26-3.15,1.79-4.48c0.35-0.88-0.02-1.87-0.9-2.19
		c-14.12-5.14-27.86-6.32-34.94-6.56c-0.12-0.02-0.93-0.02-1.05,0c-7.08,0.24-20.83,1.42-34.95,6.56c-0.89,0.33-1.1,1.04-0.82,1.94
		C175.25,113.62,176.41,116.46,177.6,119.5z"/>
</g>
<g>
	
		<linearGradient id="SVGID_00000155114641450440828880000014526451329215202491_" gradientUnits="userSpaceOnUse" x1="93.2197" y1="960.2713" x2="93.377" y2="967.7122" gradientTransform="matrix(1 0 0 1 0 -850.0001)">
		<stop  offset="0" style="stop-color:#3C3C3B"/>
		<stop  offset="0.621" style="stop-color:#242423"/>
		<stop  offset="1" style="stop-color:#000000"/>
	</linearGradient>
	<path style="fill:url(#SVGID_00000155114641450440828880000014526451329215202491_);" d="M99.21,110.14H88.3
		c-0.51,0-0.93,0.41-0.93,0.93v5.97c0,0.51,0.41,0.93,0.93,0.93h10.91C99.21,117.97,99.21,110.14,99.21,110.14z"/>
	<g>
		<path class="st5" d="M94.21,114.05c0,1.55-1.25,2.8-2.8,2.8s-2.8-1.25-2.8-2.8s1.25-2.8,2.8-2.8
			C92.95,111.25,94.21,112.5,94.21,114.05z"/>
		<path class="st35" d="M93.94,114.05c0,1.39-1.13,2.53-2.53,2.53c-1.39,0-2.53-1.13-2.53-2.53c0-1.39,1.13-2.53,2.53-2.53
			C92.8,111.52,93.94,112.66,93.94,114.05z"/>
		<path class="st36" d="M92.66,114.05c0,0.69-0.56,1.25-1.25,1.25s-1.25-0.56-1.25-1.25s0.56-1.25,1.25-1.25
			C92.09,112.8,92.66,113.37,92.66,114.05z"/>
		<path class="st37" d="M92.08,114.05c0,0.38-0.31,0.68-0.68,0.68c-0.38,0-0.69-0.31-0.69-0.68s0.31-0.68,0.69-0.68
			C91.78,113.38,92.08,113.67,92.08,114.05z"/>
		<path class="st38" d="M92.94,112.71c0,0.47-0.69,0.86-1.54,0.86s-1.54-0.38-1.54-0.86c0-0.47,0.69-0.86,1.54-0.86
			C92.26,111.85,92.94,112.23,92.94,112.71z"/>
		<path class="st39" d="M91.41,113.56c0.39,0,0.75-0.09,1.02-0.22c-0.23-0.33-0.6-0.53-1.02-0.53c-0.43,0-0.81,0.22-1.02,0.53
			C90.66,113.47,91.01,113.56,91.41,113.56z"/>
		<path class="st40" d="M90.97,113.53c0.14,0.02,0.28,0.03,0.44,0.03c0.15,0,0.29-0.01,0.44-0.03c-0.12-0.1-0.27-0.15-0.44-0.15
			S91.09,113.43,90.97,113.53z"/>
	</g>
	<g>
		<g>
			<path class="st36" d="M97.56,111.93c0,0.35-0.28,0.64-0.64,0.64h-1.34c-0.36,0-0.64-0.28-0.64-0.64l0,0
				c0-0.35,0.28-0.64,0.64-0.64h1.34C97.27,111.28,97.56,111.57,97.56,111.93L97.56,111.93z"/>
			<path class="st36" d="M97.56,114.05c0,0.36-0.28,0.64-0.64,0.64h-1.34c-0.36,0-0.64-0.28-0.64-0.64l0,0
				c0-0.35,0.28-0.64,0.64-0.64h1.34C97.27,113.41,97.56,113.7,97.56,114.05L97.56,114.05z"/>
			<path class="st36" d="M97.56,116.18c0,0.35-0.28,0.64-0.64,0.64h-1.34c-0.36,0-0.64-0.28-0.64-0.64l0,0
				c0-0.35,0.28-0.64,0.64-0.64h1.34C97.27,115.55,97.56,115.83,97.56,116.18L97.56,116.18z"/>
		</g>
		<path class="st38" d="M97.19,111.73c0,0.11-0.09,0.2-0.2,0.2h-1.54c-0.11,0-0.2-0.09-0.2-0.2l0,0c0-0.11,0.09-0.2,0.2-0.2H97
			C97.11,111.53,97.19,111.62,97.19,111.73L97.19,111.73z"/>
		<path class="st38" d="M97.19,113.86c0,0.11-0.09,0.2-0.2,0.2h-1.54c-0.11,0-0.2-0.09-0.2-0.2l0,0c0-0.11,0.09-0.2,0.2-0.2H97
			C97.11,113.66,97.19,113.75,97.19,113.86L97.19,113.86z"/>
		<path class="st38" d="M97.19,115.99c0,0.11-0.09,0.2-0.2,0.2h-1.54c-0.11,0-0.2-0.09-0.2-0.2l0,0c0-0.11,0.09-0.2,0.2-0.2H97
			C97.11,115.8,97.19,115.88,97.19,115.99L97.19,115.99z"/>
	</g>
</g>
<polygon class="st41" points="114.58,110.14 137,110.14 137,130.91 103.83,130.91 99.21,118.53 99.21,113.89 105.33,112.06 "/>
<g>
	<rect x="102.47" y="113.66" class="st42" width="31.46" height="1.63"/>
	<rect x="102.47" y="116.82" class="st42" width="31.46" height="1.63"/>
	<rect x="102.47" y="119.98" class="st42" width="31.46" height="1.63"/>
	<rect x="102.47" y="123.14" class="st42" width="31.46" height="1.63"/>
	<rect x="102.47" y="126.3" class="st42" width="19.03" height="1.63"/>
</g>
<g>
	<g>
		<defs>
			<circle id="SVGID_00000097486936872709503030000008464460264161822889_" cx="170.66" cy="193.57" r="143.52"/>
		</defs>
		<clipPath id="SVGID_00000042011627774757455200000013126245544691933063_">
			<use xlink:href="#SVGID_00000097486936872709503030000008464460264161822889_"  style="overflow:visible;"/>
		</clipPath>
		<polygon style="clip-path:url(#SVGID_00000042011627774757455200000013126245544691933063_);fill:#FFFFFF;" points="
			276.14,337.09 283.4,268.29 219.32,255.49 172.26,277.75 126.12,255.49 61.12,268.29 68.47,337.09 		"/>
	</g>
	<g>
		<defs>
			<circle id="SVGID_00000062180419702004128380000010496674553899664547_" cx="170.66" cy="193.57" r="143.52"/>
		</defs>
		<clipPath id="SVGID_00000116952398697768014400000016652982882800940451_">
			<use xlink:href="#SVGID_00000062180419702004128380000010496674553899664547_"  style="overflow:visible;"/>
		</clipPath>
		<g style="clip-path:url(#SVGID_00000116952398697768014400000016652982882800940451_);">
			<g>
				<polygon class="st2" points="321.3,337.09 319.46,287.37 283.39,268.29 275.55,337.09 				"/>
			</g>
		</g>
	</g>
	<g>
		<defs>
			<circle id="SVGID_00000120536515530821664890000015110573611746660535_" cx="170.66" cy="193.57" r="143.52"/>
		</defs>
		<clipPath id="SVGID_00000032634423001406624600000001620822002952900519_">
			<use xlink:href="#SVGID_00000120536515530821664890000015110573611746660535_"  style="overflow:visible;"/>
		</clipPath>
		<polygon style="clip-path:url(#SVGID_00000032634423001406624600000001620822002952900519_);fill:#FBCB96;" points="68.97,337.09 
			61.13,268.29 25.18,287.37 22.07,337.09 		"/>
	</g>
	<g>
		<defs>
			<circle id="SVGID_00000073721788778036030580000001487959296513137546_" cx="170.66" cy="193.57" r="143.52"/>
		</defs>
		<clipPath id="SVGID_00000070108177727502183580000004848217823859642778_">
			<use xlink:href="#SVGID_00000073721788778036030580000001487959296513137546_"  style="overflow:visible;"/>
		</clipPath>
		<polygon style="clip-path:url(#SVGID_00000070108177727502183580000004848217823859642778_);fill:#FFFFFF;" points="321.3,337.09 
			319.46,287.37 283.39,268.29 275.55,337.09 		"/>
	</g>
	<g>
		<defs>
			<circle id="SVGID_00000147916670451767307130000008949243133034241181_" cx="170.66" cy="193.57" r="143.52"/>
		</defs>
		<clipPath id="SVGID_00000124160175193198436220000008518749979924288942_">
			<use xlink:href="#SVGID_00000147916670451767307130000008949243133034241181_"  style="overflow:visible;"/>
		</clipPath>
		<polygon style="clip-path:url(#SVGID_00000124160175193198436220000008518749979924288942_);fill:#FFFFFF;" points="68.97,337.09 
			61.13,268.29 25.18,287.37 22.07,337.09 		"/>
	</g>
</g>
</svg>
