<?xml version="1.0" encoding="utf-8"?>
<!-- Generator: Adobe Illustrator 27.0.0, SVG Export Plug-In . SVG Version: 6.00 Build 0)  -->
<svg version="1.1" id="Capa_1" xmlns="http://www.w3.org/2000/svg" xmlns:xlink="http://www.w3.org/1999/xlink" x="0px" y="0px"
	 viewBox="0 0 340.38 339.44" style="enable-background:new 0 0 340.38 339.44;" xml:space="preserve">
<style type="text/css">
	.st0{fill-rule:evenodd;clip-rule:evenodd;fill:#2D3E50;}
	.st1{clip-path:url(#SVGID_00000101078150237193768060000016231895553330777767_);}
	.st2{fill:#FBCB96;}
	.st3{fill:#FFFFFF;}
	.st4{fill:#571D10;}
	.st5{opacity:0.3;}
	.st6{fill:url(#SVGID_00000051346115710670294590000000298142557516578975_);}
	.st7{fill:#CFE1EB;}
	.st8{filter:url(#Adobe_OpacityMaskFilter);}
	.st9{filter:url(#Adobe_OpacityMaskFilter_00000172410885577041196850000004052760537239092118_);}
	
		.st10{mask:url(#SVGID_00000122703822487174009000000015455976503670201773_);fill:url(#SVGID_00000042727128464060784840000007270953729234300552_);}
	.st11{fill:url(#SVGID_00000181796516637167565350000007562822827016321194_);}
	.st12{filter:url(#Adobe_OpacityMaskFilter_00000181066921131118022780000006362491629585662082_);}
	.st13{filter:url(#Adobe_OpacityMaskFilter_00000117638150788270069310000000692662454017867167_);}
	
		.st14{mask:url(#SVGID_00000149353407689056575390000008630622263959529871_);fill:url(#SVGID_00000041981648308940415260000002760871900711860361_);}
	.st15{fill:url(#SVGID_00000177486510639290543340000000277914655334329729_);}
	.st16{fill:url(#SVGID_00000088108772003708848570000000814466205917782207_);}
	.st17{fill:url(#SVGID_00000101818382542534173030000015420477474252603035_);}
	.st18{fill:url(#SVGID_00000029045429501430114810000012780518243870721706_);}
	.st19{fill:#9BD5E4;}
	.st20{fill:#6CC7E2;}
	.st21{fill:#4E8FA1;}
	.st22{fill:#BBE2EE;}
	.st23{fill:#91D3E9;}
	.st24{fill:#5BA4BA;}
	.st25{opacity:0.5;fill:#BBE2EE;}
	.st26{fill:#82B4C5;}
</style>
<circle class="st0" cx="170.42" cy="169.95" r="167.14"/>
<g>
	<defs>
		<circle id="SVGID_1_" cx="170.42" cy="169.95" r="167.14"/>
	</defs>
	<clipPath id="SVGID_00000000188087366827942700000013012541030669752732_">
		<use xlink:href="#SVGID_1_"  style="overflow:visible;"/>
	</clipPath>
	<g style="clip-path:url(#SVGID_00000000188087366827942700000013012541030669752732_);">
		<g>
			<polygon class="st2" points="215.07,262.21 129.55,262.21 138.26,212.29 206.31,212.29 			"/>
		</g>
		<polygon class="st2" points="215.07,262.21 171.89,262.21 129.55,262.21 129.18,265.11 171.89,306.43 215.44,265.11 		"/>
		<polygon class="st3" points="267.21,337.09 273.87,273.96 215.07,262.21 171.89,282.64 129.55,262.21 69.91,273.96 76.65,337.09 
					"/>
		<g>
			<g>
				<polygon class="st2" points="308.65,337.09 306.96,291.47 273.86,273.96 266.67,337.09 				"/>
			</g>
		</g>
		<polygon class="st2" points="77.11,337.09 69.92,273.96 36.93,291.47 34.08,337.09 		"/>
		<polygon class="st3" points="308.65,337.09 306.96,291.47 273.86,273.96 266.67,337.09 		"/>
		<polygon class="st3" points="77.11,337.09 69.92,273.96 36.93,291.47 34.08,337.09 		"/>
		<g>
			<g>
				<path class="st2" d="M235.2,159.91c0,0,1.96,0,2.62,0c2.66,0,4.52-4.61,5.31-6.91c1.75-5.12,2.5-9.2,2.76-11.44
					c0.33-2.83-0.55-7.71-4.18-7.71c-4.17,0-6.51,4.26-6.51,4.26V159.91z"/>
				<path class="st2" d="M108.58,159.91c0,0-1.96,0-2.62,0c-2.66,0-4.53-4.61-5.31-6.91c-1.75-5.12-2.51-9.2-2.77-11.44
					c-0.33-2.83,0.55-7.71,4.18-7.71c4.17,0,6.51,4.26,6.51,4.26V159.91z"/>
			</g>
			<path class="st2" d="M212.14,62.95c-15.84-12.03-50.01-19.33-79.02,0.19c-24.17,16.26-27.18,45.63-27.18,45.63s0,46.79,0,71.42
				c0,4.68,42.75,52.9,52.37,52.9h27.1c9.62,0,51.38-48.22,51.38-52.9c0-24.63,0-74.11,0-74.11S234.77,80.14,212.14,62.95z"/>
			<path class="st4" d="M127.13,60.9c1.6-12.78,12.1-26.02,46.44-27.96c34.48-1.95,40.62,26.3,58.88,37
				c18.26,10.7,13.24,34.43,4.34,46.3c0,0-0.15-29.51-27.62-30.86c-29.21-1.43-40.08,12.28-61.96,6.21
				C133.64,87.83,125.25,76,127.13,60.9z"/>
			<path class="st4" d="M132.95,55.99c0,0-28.3,8.84-32.75,36.4c-4.45,27.56,5.74,42.78,5.74,42.78s7.38-44.03,40.02-48.37
				C145.96,86.8,158.97,68.08,132.95,55.99z"/>
			<g>
				<path class="st4" d="M114.07,91.75v46.28c0,20.47-8.13,28.45-8.13,28.45v-36.23C105.94,115.68,108.99,102.3,114.07,91.75z"/>
			</g>
			<g>
				<path class="st4" d="M228.58,80.03v58c0,20.47,8.21,28.45,8.21,28.45v-47.96C236.79,103.95,233.71,90.57,228.58,80.03z"/>
			</g>
			<path class="st4" d="M228.58,140.32c0,0,0,9.51,0,31.32c0,13.36-14.04,23.79-35.95,45.7c-4.26,4.26-14.36,4.6-20.51,4.61
				c-6.31-0.03-17.85-0.44-22.02-4.61c-21.91-21.91-35.95-32.34-35.95-45.7c0-21.81,0-31.32,0-31.32s-3.57,5.71-8.22,13.71v26.17
				c0,4.68,41.76,52.9,51.38,52.9h14.43h1.11h12.55c9.62,0,51.38-48.22,51.38-52.9v-26.17
				C232.14,146.03,228.58,140.32,228.58,140.32z"/>
			<path class="st4" d="M199.71,185.51c-16.89-12.78-26.82-2.74-26.82-2.74s-9.93-10.04-26.82,2.74
				c-10.69,8.09-12.65,17.86-12.65,17.86l4.55,5.53c0,0,6.96-26.93,34.92-17.57c26.7-7.53,34.92,17.57,34.92,17.57l4.55-5.53
				C212.36,203.37,210.39,193.59,199.71,185.51z"/>
			<g>
				<path class="st4" d="M198.22,195.37c0,0,5.71,12.9-5.59,21.97l18.43-12.4L198.22,195.37z"/>
				<path class="st4" d="M146.27,195.37c0,0-6.31,13.83,4.99,22.91l-17.83-13.34L146.27,195.37z"/>
			</g>
			<g class="st5">
				<g>
					<path class="st3" d="M149.99,89.48c-4.15-1.31-7.98-3.67-11.21-6.74c-1.63-1.53-3.03-3.3-4.23-5.22
						c-1.18-1.93-2.08-4.05-2.68-6.24c-0.56-2.21-0.81-4.49-0.74-6.75c0.11-2.26,0.45-4.49,1.1-6.62c1.26-4.27,3.42-8.17,6.12-11.56
						c-1.72,3.98-3.24,7.97-4.04,12.07c-0.79,4.08-0.86,8.26,0.21,12.17c1,3.93,3.11,7.54,5.81,10.69
						C143.06,84.41,146.34,87.16,149.99,89.48z"/>
				</g>
				<g>
					<path class="st3" d="M194.09,83.15c-1.36-3.06-2.07-6.38-2.33-9.75c-0.26-3.37,0.04-6.83,1.02-10.16
						c0.53-1.65,1.2-3.27,2.09-4.77c0.91-1.49,1.98-2.9,3.26-4.08c2.53-2.4,5.73-3.96,9-4.56c-2.88,1.68-5.46,3.62-7.45,6.03
						c-1.98,2.4-3.4,5.19-4.28,8.17c-0.93,2.98-1.33,6.14-1.51,9.34C193.74,76.58,193.83,79.83,194.09,83.15z"/>
				</g>
				<g>
					<path class="st3" d="M189.47,84.35c-1.84-3.38-2.94-7.13-3.55-10.96c-0.61-3.83-0.6-7.8,0.07-11.68
						c0.37-1.93,0.89-3.84,1.61-5.69c0.75-1.82,1.63-3.61,2.75-5.22c2.19-3.27,5.11-6,8.45-7.88c-2.63,2.78-4.91,5.74-6.62,8.98
						c-1.7,3.24-2.87,6.71-3.5,10.29c-0.67,3.58-0.8,7.27-0.64,10.98C188.23,76.88,188.7,80.6,189.47,84.35z"/>
				</g>
				<g>
					<path class="st3" d="M184.16,85.2c-2.04-3.64-3.41-7.63-4.37-11.7c-0.96-4.08-1.4-8.31-1.28-12.54
						c0.09-2.11,0.31-4.23,0.71-6.32c0.43-2.08,0.97-4.15,1.78-6.11c1.55-3.95,3.92-7.59,7.01-10.39c-2.2,3.53-3.89,7.22-4.99,11.08
						c-1.09,3.85-1.66,7.83-1.77,11.84c-0.16,4.01,0.13,8.04,0.64,12.07C182.43,77.14,183.18,81.16,184.16,85.2z"/>
				</g>
				<g>
					<path class="st3" d="M167.04,89.48c-3.4-3.27-6.04-7.32-8.04-11.64c-2.01-4.33-3.26-9.05-3.67-13.85
						c-0.17-2.4-0.14-4.83,0.12-7.22c0.3-2.39,0.76-4.76,1.51-7.04c1.44-4.57,3.75-8.82,6.74-12.45c-2.02,4.24-3.68,8.56-4.67,13.01
						c-0.98,4.44-1.35,8.99-0.97,13.49c0.33,4.51,1.38,8.95,2.91,13.26C162.54,81.33,164.54,85.51,167.04,89.48z"/>
				</g>
				<g>
					<path class="st3" d="M171.92,88.62c-2.98-3.49-5.11-7.68-6.6-12.06c-1.5-4.39-2.23-9.07-2.2-13.74
						c0.05-2.34,0.27-4.67,0.69-6.97c0.46-2.29,1.04-4.55,1.89-6.72c1.63-4.35,4-8.39,6.98-11.86c-2.02,4.1-3.76,8.24-4.94,12.52
						c-1.18,4.27-1.85,8.66-1.87,13.05c-0.08,4.4,0.49,8.8,1.51,13.12C168.42,80.28,169.9,84.53,171.92,88.62z"/>
				</g>
				<g>
					<path class="st3" d="M154.72,90.08c-3.93-2.22-7.35-5.35-10.19-8.94c-2.84-3.59-5.01-7.81-6.14-12.35
						c-0.53-2.27-0.82-4.61-0.8-6.95c0.05-2.33,0.34-4.66,0.95-6.89c1.18-4.48,3.41-8.57,6.28-12.03c-1.91,4.07-3.47,8.22-4.2,12.49
						c-0.72,4.26-0.63,8.59,0.41,12.73c0.98,4.16,2.86,8.09,5.21,11.75C148.65,83.55,151.49,86.96,154.72,90.08z"/>
				</g>
				<g>
					<path class="st3" d="M177.74,86.57c-2.59-3.64-4.23-7.92-5.27-12.3c-1.04-4.39-1.34-8.97-1-13.49c0.2-2.26,0.55-4.5,1.06-6.71
						c0.55-2.2,1.19-4.37,2.05-6.45c1.67-4.18,3.94-8.1,6.77-11.54c-1.85,4.04-3.51,8.09-4.75,12.25
						c-1.22,4.15-2.07,8.39-2.39,12.67c-0.37,4.28-0.21,8.6,0.37,12.88C175.18,78.16,176.17,82.42,177.74,86.57z"/>
				</g>
				<g>
					<path class="st3" d="M161.81,89.48c-4.16-1.93-7.64-5.29-10.19-9.21c-1.29-1.96-2.28-4.11-3.07-6.33
						c-0.76-2.23-1.25-4.55-1.52-6.88c-0.23-2.34-0.25-4.69-0.06-7.01c0.23-2.32,0.59-4.62,1.19-6.85
						c1.15-4.48,2.94-8.74,5.28-12.66c-1.29,4.37-2.47,8.71-3.19,13.1c-0.7,4.38-1,8.8-0.5,13.13c0.43,4.33,1.69,8.56,3.71,12.43
						C155.51,83.05,158.28,86.6,161.81,89.48z"/>
				</g>
				<g>
					<path class="st3" d="M131.18,86.57c-3.65-2.43-7.08-4.7-10.76-6.48c-1.84-0.89-3.71-1.65-5.67-2.25
						c-1.96-0.61-3.99-1.02-6.17-1.37c2.07-0.8,4.36-0.97,6.6-0.74c2.24,0.24,4.43,0.92,6.44,1.9c2.02,0.98,3.87,2.26,5.5,3.75
						C128.73,82.89,130.19,84.58,131.18,86.57z"/>
				</g>
				<g>
					<path class="st3" d="M127.93,89.48c-1.74-1.11-3.45-2.03-5.2-2.83c-1.74-0.8-3.51-1.47-5.33-2.02
						c-1.81-0.55-3.66-0.99-5.57-1.34c-1.91-0.37-3.86-0.62-5.9-0.99c1.93-0.77,3.99-1.11,6.07-1.15c2.08-0.03,4.18,0.25,6.19,0.87
						c2.01,0.61,3.93,1.55,5.62,2.8C125.5,86.06,127.03,87.58,127.93,89.48z"/>
				</g>
				<g>
					<path class="st3" d="M125.02,91.75c-1.96-0.61-3.83-1.13-5.7-1.54c-1.87-0.42-3.72-0.71-5.59-0.86
						c-1.86-0.15-3.73-0.16-5.63-0.02c-1.9,0.13-3.81,0.44-5.85,0.75c3.14-2.69,7.52-3.81,11.7-3.46c2.1,0.17,4.15,0.71,6.05,1.56
						C121.88,89.05,123.67,90.17,125.02,91.75z"/>
				</g>
				<g>
					<path class="st3" d="M121.77,95.58c-1.75-0.17-3.37-0.27-4.98-0.3c-1.61-0.04-3.19-0.01-4.77,0.08
						c-1.58,0.1-3.16,0.26-4.76,0.47c-1.61,0.2-3.23,0.48-5,0.66c1.28-1.22,2.82-2.1,4.45-2.74c1.63-0.64,3.38-1.02,5.15-1.12
						c1.76-0.11,3.55,0.06,5.26,0.53C118.8,93.64,120.46,94.36,121.77,95.58z"/>
				</g>
				<g>
					<path class="st3" d="M119.88,99.58c-3.28,0.42-6.2,0.77-9.07,1.48c-1.43,0.35-2.83,0.78-4.22,1.31
						c-1.41,0.52-2.79,1.16-4.33,1.83c1.53-3,4.64-5.01,7.9-5.8c1.64-0.4,3.34-0.51,5-0.34C116.81,98.26,118.45,98.68,119.88,99.58z
						"/>
				</g>
				<g>
					<path class="st3" d="M133.58,83.83c-1-1.68-1.99-3.22-3.07-4.67c-1.07-1.45-2.22-2.78-3.48-3.98c-1.26-1.2-2.63-2.28-4.14-3.23
						c-1.5-0.97-3.14-1.78-4.89-2.67c3.9-0.48,8.01,1.12,10.92,3.92c1.46,1.4,2.63,3.08,3.45,4.89
						C133.16,79.91,133.69,81.85,133.58,83.83z"/>
				</g>
				<g>
					<path class="st3" d="M202.93,82.11c-1.57-2.32-2.54-5.02-3.03-7.82c-0.48-2.8-0.45-5.77,0.33-8.6
						c0.76-2.83,2.32-5.47,4.41-7.48c2.08-2.02,4.64-3.43,7.33-4.16c-2.18,1.74-4.17,3.53-5.74,5.58c-1.58,2.05-2.68,4.34-3.36,6.78
						c-0.67,2.44-0.91,5.03-0.85,7.66C202.09,76.71,202.42,79.38,202.93,82.11z"/>
				</g>
				<g>
					<path class="st3" d="M210.26,82.11c-1.08-1.92-1.68-4.04-2.05-6.2c-0.34-2.17-0.4-4.4-0.05-6.62c0.34-2.21,1.09-4.43,2.38-6.33
						c1.28-1.89,3.11-3.43,5.2-4.11c-1.45,1.65-2.56,3.33-3.32,5.16c-0.77,1.82-1.25,3.73-1.56,5.7
						C210.25,73.66,210.31,77.76,210.26,82.11z"/>
				</g>
				<g>
					<path class="st3" d="M216.43,82.11c-1.02-1.44-1.6-3.11-1.94-4.83c-0.32-1.72-0.34-3.54,0.06-5.33
						c0.39-1.78,1.28-3.55,2.64-4.84c1.36-1.29,3.13-2.06,4.88-2.1c-1.35,1.13-2.46,2.23-3.24,3.49c-0.79,1.25-1.29,2.61-1.62,4.06
						c-0.33,1.45-0.49,2.99-0.59,4.58C216.52,78.73,216.51,80.36,216.43,82.11z"/>
				</g>
				<g>
					<path class="st3" d="M222.07,84.35c-1.05-1.09-1.68-2.47-2.05-3.93c-0.35-1.46-0.38-3.07,0.06-4.62
						c0.43-1.55,1.4-2.99,2.67-3.93c1.28-0.94,2.78-1.43,4.28-1.39c-1.09,1.03-2.06,1.94-2.78,2.94c-0.73,0.99-1.22,2.02-1.55,3.14
						c-0.33,1.13-0.49,2.35-0.56,3.64C222.08,81.51,222.09,82.86,222.07,84.35z"/>
				</g>
				<g>
					<path class="st3" d="M226.01,86.57c-0.65-1.24-0.77-2.67-0.6-4.04c0.18-1.37,0.69-2.72,1.46-3.89c0.77-1.17,1.8-2.16,2.98-2.88
						c1.18-0.71,2.48-1.17,3.87-1.22c-0.88,1.07-1.73,1.96-2.49,2.87c-0.77,0.9-1.45,1.8-2.07,2.73c-0.62,0.93-1.17,1.91-1.68,2.97
						C226.96,84.18,226.49,85.29,226.01,86.57z"/>
				</g>
				<g>
					<path class="st3" d="M229.85,91.36c-0.66-1.4-0.74-2.98-0.5-4.52c0.26-1.54,0.94-3.05,1.96-4.29c1.02-1.24,2.37-2.2,3.82-2.75
						c1.46-0.55,2.99-0.76,4.5-0.51c-1.26,0.87-2.43,1.59-3.47,2.4c-1.05,0.8-1.95,1.65-2.74,2.6
						C231.84,86.2,230.8,88.51,229.85,91.36z"/>
				</g>
				<g>
					<path class="st3" d="M232,97.01c-0.39-1.41-0.21-2.88,0.21-4.25c0.43-1.37,1.16-2.65,2.1-3.75c0.94-1.1,2.09-2,3.36-2.65
						c1.27-0.64,2.65-1.05,4.09-1.05c-0.99,1.05-1.95,1.91-2.85,2.81c-0.9,0.88-1.74,1.76-2.53,2.67c-0.79,0.91-1.53,1.87-2.24,2.89
						C233.42,94.72,232.73,95.79,232,97.01z"/>
				</g>
			</g>
		</g>
		<g>
			
				<linearGradient id="SVGID_00000003103325330527451870000003474058756433796482_" gradientUnits="userSpaceOnUse" x1="171.4826" y1="129.3956" x2="171.5909" y2="135.465">
				<stop  offset="0" style="stop-color:#3C3C3B"/>
				<stop  offset="0.621" style="stop-color:#242423"/>
				<stop  offset="1" style="stop-color:#000000"/>
			</linearGradient>
			<path style="fill:url(#SVGID_00000003103325330527451870000003474058756433796482_);" d="M171.54,129.49
				c-0.11-0.02-0.23-0.03-0.34-0.02l-0.15,0.01l-0.15-0.01c-0.11,0-0.22,0-0.33,0.02c-1.86,0.06-4.24,0.2-6.97,0.47v5.66
				c2.87-0.29,5.36-0.43,7.3-0.49c0.04,0,0.07,0,0.11-0.01c0.02,0,0.05,0,0.07,0c0.04,0,0.07,0.01,0.11,0.01
				c2.17,0.07,5,0.23,8.29,0.6v-5.67C176.33,129.72,173.62,129.56,171.54,129.49z"/>
		</g>
		<path class="st7" d="M207.86,123.26v-0.01c-0.06,0-0.13,0-0.2,0.01c-0.06,0-0.13-0.01-0.2-0.01v0.01
			c-8.92,0.28-20.65,1.89-31.72,5.92c0,0,3.69,10.9,5.53,19.14c1.84,8.24,9.21,12.98,15.53,12.98h10.66h0.4h10.66
			c6.32,0,13.69-4.74,15.53-12.98c1.84-8.24,5.53-19.14,5.53-19.14C228.51,125.15,216.78,123.54,207.86,123.26z"/>
		<path class="st7" d="M134.26,123.26v-0.01c-0.06,0-0.13,0-0.2,0.01c-0.06,0-0.13-0.01-0.2-0.01v0.01
			c-8.92,0.28-20.65,1.89-31.72,5.92c0,0,3.68,10.9,5.53,19.14c1.84,8.24,9.21,12.98,15.53,12.98h10.66h0.39h10.66
			c6.32,0,13.69-4.74,15.53-12.98c1.84-8.24,5.53-19.14,5.53-19.14C154.91,125.15,143.17,123.54,134.26,123.26z"/>
		<defs>
			<filter id="Adobe_OpacityMaskFilter" filterUnits="userSpaceOnUse" x="106.93" y="130.59" width="54.26" height="13.68">
				<feFlood  style="flood-color:white;flood-opacity:1" result="back"/>
				<feBlend  in="SourceGraphic" in2="back" mode="normal"/>
			</filter>
		</defs>
		
			<mask maskUnits="userSpaceOnUse" x="106.93" y="130.59" width="54.26" height="13.68" id="SVGID_00000155858740389200025630000006412443766857487787_">
			<g class="st8">
				<defs>
					
						<filter id="Adobe_OpacityMaskFilter_00000132056706084023462370000006928778594298144388_" filterUnits="userSpaceOnUse" x="106.93" y="130.59" width="54.26" height="13.68">
						<feFlood  style="flood-color:white;flood-opacity:1" result="back"/>
						<feBlend  in="SourceGraphic" in2="back" mode="normal"/>
					</filter>
				</defs>
				
					<mask maskUnits="userSpaceOnUse" x="106.93" y="130.59" width="54.26" height="13.68" id="SVGID_00000155858740389200025630000006412443766857487787_">
					<g style="filter:url(#Adobe_OpacityMaskFilter_00000132056706084023462370000006928778594298144388_);">
					</g>
				</mask>
				
					<linearGradient id="SVGID_00000117677886466086299960000003530083319720810395_" gradientUnits="userSpaceOnUse" x1="133.8989" y1="130.7028" x2="134.1157" y2="140.1321">
					<stop  offset="0" style="stop-color:#FFFFFF"/>
					<stop  offset="0.1572" style="stop-color:#DDDDDD"/>
					<stop  offset="0.5063" style="stop-color:#858585"/>
					<stop  offset="1" style="stop-color:#000000"/>
				</linearGradient>
				
					<path style="mask:url(#SVGID_00000155858740389200025630000006412443766857487787_);fill:url(#SVGID_00000117677886466086299960000003530083319720810395_);" d="
					M129.39,140.98c2.48-0.22,4.5-0.4,4.5-0.41c0,0,0.03-0.01,0.06,0c0.03,0,0.14,0,0.17,0c0.03,0,0.11,0,0.11,0
					c0,0,2.03,0.19,4.5,0.41l16.98,3.17c2.42,0.57,4.69-0.98,5.04-3.44c0,0,0.27-1.79,0.43-2.94c0.16-1.15-1.69-2.57-4.1-3.17
					l-18.35-3.59c-2.48-0.23-4.5-0.41-4.5-0.42c0,0-0.03-0.01-0.06,0c-0.03,0-0.14,0-0.17,0c-0.03,0-0.11,0-0.11,0
					c0,0-2.03,0.19-4.5,0.42l-18.35,3.59c-2.41,0.6-4.26,2.02-4.1,3.17c0.16,1.15,3.05,6.95,5.47,6.38L129.39,140.98z"/>
			</g>
		</mask>
		
			<linearGradient id="SVGID_00000013174259166508456300000015591075162572426409_" gradientUnits="userSpaceOnUse" x1="133.8989" y1="130.7028" x2="134.1157" y2="140.1321">
			<stop  offset="0" style="stop-color:#FFFFFF"/>
			<stop  offset="1" style="stop-color:#FFFFFF"/>
		</linearGradient>
		<path style="fill:url(#SVGID_00000013174259166508456300000015591075162572426409_);" d="M129.39,140.98
			c2.48-0.22,4.5-0.4,4.5-0.41c0,0,0.03-0.01,0.06,0c0.03,0,0.14,0,0.17,0c0.03,0,0.11,0,0.11,0c0,0,2.03,0.19,4.5,0.41l16.98,3.17
			c2.42,0.57,4.69-0.98,5.04-3.44c0,0,0.27-1.79,0.43-2.94c0.16-1.15-1.69-2.57-4.1-3.17l-18.35-3.59c-2.48-0.23-4.5-0.41-4.5-0.42
			c0,0-0.03-0.01-0.06,0c-0.03,0-0.14,0-0.17,0c-0.03,0-0.11,0-0.11,0c0,0-2.03,0.19-4.5,0.42l-18.35,3.59
			c-2.41,0.6-4.26,2.02-4.1,3.17c0.16,1.15,3.05,6.95,5.47,6.38L129.39,140.98z"/>
		<defs>
			
				<filter id="Adobe_OpacityMaskFilter_00000176043354650335720940000013345151062243745464_" filterUnits="userSpaceOnUse" x="180.53" y="130.59" width="54.26" height="13.68">
				<feFlood  style="flood-color:white;flood-opacity:1" result="back"/>
				<feBlend  in="SourceGraphic" in2="back" mode="normal"/>
			</filter>
		</defs>
		
			<mask maskUnits="userSpaceOnUse" x="180.53" y="130.59" width="54.26" height="13.68" id="SVGID_00000029015851460101845330000002490637853653014926_">
			<g style="filter:url(#Adobe_OpacityMaskFilter_00000176043354650335720940000013345151062243745464_);">
				<defs>
					
						<filter id="Adobe_OpacityMaskFilter_00000150782770430292574280000016990377803103690636_" filterUnits="userSpaceOnUse" x="180.53" y="130.59" width="54.26" height="13.68">
						<feFlood  style="flood-color:white;flood-opacity:1" result="back"/>
						<feBlend  in="SourceGraphic" in2="back" mode="normal"/>
					</filter>
				</defs>
				
					<mask maskUnits="userSpaceOnUse" x="180.53" y="130.59" width="54.26" height="13.68" id="SVGID_00000029015851460101845330000002490637853653014926_">
					<g style="filter:url(#Adobe_OpacityMaskFilter_00000150782770430292574280000016990377803103690636_);">
					</g>
				</mask>
				
					<linearGradient id="SVGID_00000080189474059887966680000012418142514817993627_" gradientUnits="userSpaceOnUse" x1="207.4279" y1="130.595" x2="207.753" y2="140.3495">
					<stop  offset="0" style="stop-color:#FFFFFF"/>
					<stop  offset="0.143" style="stop-color:#D9D9D9"/>
					<stop  offset="0.7404" style="stop-color:#3E3E3E"/>
					<stop  offset="1" style="stop-color:#000000"/>
				</linearGradient>
				
					<path style="mask:url(#SVGID_00000029015851460101845330000002490637853653014926_);fill:url(#SVGID_00000080189474059887966680000012418142514817993627_);" d="
					M202.99,140.98c2.48-0.22,4.5-0.4,4.5-0.41c0,0,0.03-0.01,0.06,0c0.03,0,0.14,0,0.17,0c0.03,0,0.11,0,0.11,0
					c0,0,2.03,0.19,4.5,0.41l16.98,3.17c2.42,0.57,4.69-0.98,5.04-3.44c0,0,0.27-1.79,0.43-2.94c0.16-1.15-1.69-2.57-4.1-3.17
					l-18.35-3.59c-2.48-0.23-4.5-0.41-4.5-0.42c0,0-0.03-0.01-0.06,0c-0.03,0-0.14,0-0.17,0c-0.03,0-0.11,0-0.11,0
					c0,0-2.03,0.19-4.5,0.42l-18.35,3.59c-2.41,0.6-4.26,2.02-4.1,3.17c0.16,1.15,3.05,6.95,5.47,6.38L202.99,140.98z"/>
			</g>
		</mask>
		
			<linearGradient id="SVGID_00000103975532782206688900000018223774808518033807_" gradientUnits="userSpaceOnUse" x1="207.4279" y1="130.595" x2="207.753" y2="140.3495">
			<stop  offset="0" style="stop-color:#FFFFFF"/>
			<stop  offset="1" style="stop-color:#FFFFFF"/>
		</linearGradient>
		<path style="fill:url(#SVGID_00000103975532782206688900000018223774808518033807_);" d="M202.99,140.98
			c2.48-0.22,4.5-0.4,4.5-0.41c0,0,0.03-0.01,0.06,0c0.03,0,0.14,0,0.17,0c0.03,0,0.11,0,0.11,0c0,0,2.03,0.19,4.5,0.41l16.98,3.17
			c2.42,0.57,4.69-0.98,5.04-3.44c0,0,0.27-1.79,0.43-2.94c0.16-1.15-1.69-2.57-4.1-3.17l-18.35-3.59c-2.48-0.23-4.5-0.41-4.5-0.42
			c0,0-0.03-0.01-0.06,0c-0.03,0-0.14,0-0.17,0c-0.03,0-0.11,0-0.11,0c0,0-2.03,0.19-4.5,0.42l-18.35,3.59
			c-2.41,0.6-4.26,2.02-4.1,3.17c0.16,1.15,3.05,6.95,5.47,6.38L202.99,140.98z"/>
		<g>
			
				<linearGradient id="SVGID_00000030445932316937314460000005297873038601152652_" gradientUnits="userSpaceOnUse" x1="100.5565" y1="130.4098" x2="167.4651" y2="130.4098">
				<stop  offset="0" style="stop-color:#3C3C3B"/>
				<stop  offset="0.621" style="stop-color:#242423"/>
				<stop  offset="1" style="stop-color:#000000"/>
			</linearGradient>
			<path style="fill:url(#SVGID_00000030445932316937314460000005297873038601152652_);" d="M164.88,137.43h-1.53
				c0.47-1.5,0.94-3.05,1.52-4.86c-8.2-2.82-19.71-5.16-30.67-5.5c-0.04,0-0.25,0-0.29,0c-6.28,0.2-17.92,1.12-30.64,5.51
				c0.57,1.69,1.03,3.54,1.54,5c0,0-1.84-0.42-2.5-2.15c-0.67-1.77-1.16-2.89-1.64-4.11c-0.32-0.81,0.02-1.72,0.84-2.01
				c12.96-4.72,25.56-5.8,32.06-6.02c0.11-0.02,0.85-0.02,0.96,0c6.5,0.22,19.11,1.3,32.07,6.02c0.82,0.3,1.01,0.95,0.75,1.78
				C167.05,132.03,165.98,134.64,164.88,137.43z"/>
		</g>
		<g>
			
				<linearGradient id="SVGID_00000096056922124471939920000013956442681098128050_" gradientUnits="userSpaceOnUse" x1="207.0296" y1="123.4692" x2="207.7523" y2="131.5616">
				<stop  offset="0" style="stop-color:#3C3C3B"/>
				<stop  offset="0.621" style="stop-color:#242423"/>
				<stop  offset="1" style="stop-color:#000000"/>
			</linearGradient>
			<path style="fill:url(#SVGID_00000096056922124471939920000013956442681098128050_);" d="M176.79,137.43h1.53
				c-0.47-1.5-0.94-3.05-1.52-4.86c8.2-2.82,19.71-5.16,30.67-5.5c0.04,0,0.25,0,0.29,0c6.28,0.2,17.92,1.12,30.64,5.51
				c-0.57,1.69-1.03,3.54-1.54,5c0,0,1.84-0.42,2.5-2.15c0.67-1.77,1.16-2.89,1.64-4.11c0.32-0.81-0.02-1.72-0.83-2.01
				c-12.96-4.72-25.56-5.8-32.06-6.02c-0.11-0.02-0.85-0.02-0.96,0c-6.5,0.22-19.11,1.3-32.07,6.02c-0.82,0.3-1.01,0.95-0.75,1.78
				C174.63,132.03,175.7,134.64,176.79,137.43z"/>
		</g>
		<g>
			
				<linearGradient id="SVGID_00000034072542611193875340000008523881067861727677_" gradientUnits="userSpaceOnUse" x1="99.3672" y1="128.9604" x2="99.5116" y2="135.7882">
				<stop  offset="0" style="stop-color:#3C3C3B"/>
				<stop  offset="0.621" style="stop-color:#242423"/>
				<stop  offset="1" style="stop-color:#000000"/>
			</linearGradient>
			<path style="fill:url(#SVGID_00000034072542611193875340000008523881067861727677_);" d="M104.86,128.84H94.85
				c-0.47,0-0.85,0.38-0.85,0.85v5.48c0,0.47,0.38,0.85,0.85,0.85h10.01V128.84z"/>
			<g>
				<path class="st3" d="M100.27,132.43c0,1.42-1.15,2.57-2.57,2.57c-1.42,0-2.57-1.15-2.57-2.57c0-1.42,1.15-2.57,2.57-2.57
					C99.12,129.86,100.27,131.01,100.27,132.43z"/>
				<path class="st19" d="M100.02,132.43c0,1.28-1.04,2.32-2.32,2.32c-1.28,0-2.32-1.04-2.32-2.32c0-1.28,1.04-2.32,2.32-2.32
					C98.98,130.11,100.02,131.15,100.02,132.43z"/>
				<path class="st20" d="M98.85,132.43c0,0.63-0.51,1.15-1.15,1.15c-0.63,0-1.15-0.51-1.15-1.15c0-0.63,0.51-1.15,1.15-1.15
					C98.33,131.28,98.85,131.8,98.85,132.43z"/>
				<path class="st21" d="M98.32,132.43c0,0.35-0.28,0.62-0.62,0.62c-0.35,0-0.63-0.28-0.63-0.62c0-0.34,0.28-0.62,0.63-0.62
					C98.04,131.81,98.32,132.08,98.32,132.43z"/>
				<path class="st22" d="M99.11,131.2c0,0.43-0.63,0.79-1.41,0.79c-0.78,0-1.41-0.35-1.41-0.79c0-0.43,0.63-0.79,1.41-0.79
					C98.48,130.41,99.11,130.76,99.11,131.2z"/>
				<path class="st23" d="M97.7,131.98c0.36,0,0.69-0.08,0.94-0.2c-0.21-0.3-0.55-0.49-0.94-0.49c-0.39,0-0.74,0.2-0.94,0.49
					C97.01,131.9,97.34,131.98,97.7,131.98z"/>
				<path class="st24" d="M97.3,131.95c0.13,0.02,0.26,0.03,0.4,0.03c0.14,0,0.27-0.01,0.4-0.03c-0.11-0.09-0.25-0.14-0.4-0.14
					C97.55,131.81,97.41,131.86,97.3,131.95z"/>
			</g>
			<g>
				<g>
					<path class="st20" d="M103.35,130.48c0,0.32-0.26,0.59-0.59,0.59h-1.23c-0.33,0-0.59-0.26-0.59-0.59l0,0
						c0-0.32,0.26-0.59,0.59-0.59h1.23C103.08,129.89,103.35,130.15,103.35,130.48L103.35,130.48z"/>
					<path class="st20" d="M103.35,132.43c0,0.33-0.26,0.59-0.59,0.59h-1.23c-0.33,0-0.59-0.26-0.59-0.59l0,0
						c0-0.32,0.26-0.59,0.59-0.59h1.23C103.08,131.84,103.35,132.11,103.35,132.43L103.35,132.43z"/>
					<path class="st20" d="M103.35,134.38c0,0.32-0.26,0.59-0.59,0.59h-1.23c-0.33,0-0.59-0.26-0.59-0.59l0,0
						c0-0.32,0.26-0.59,0.59-0.59h1.23C103.08,133.8,103.35,134.06,103.35,134.38L103.35,134.38z"/>
				</g>
				<path class="st22" d="M103.01,130.3c0,0.1-0.08,0.18-0.18,0.18h-1.41c-0.1,0-0.18-0.08-0.18-0.18l0,0c0-0.1,0.08-0.18,0.18-0.18
					h1.41C102.93,130.12,103.01,130.2,103.01,130.3L103.01,130.3z"/>
				<path class="st22" d="M103.01,132.25c0,0.1-0.08,0.18-0.18,0.18h-1.41c-0.1,0-0.18-0.08-0.18-0.18l0,0
					c0-0.1,0.08-0.18,0.18-0.18h1.41C102.93,132.07,103.01,132.15,103.01,132.25L103.01,132.25z"/>
				<path class="st22" d="M103.01,134.21c0,0.1-0.08,0.18-0.18,0.18h-1.41c-0.1,0-0.18-0.08-0.18-0.18l0,0
					c0-0.1,0.08-0.18,0.18-0.18h1.41C102.93,134.03,103.01,134.11,103.01,134.21L103.01,134.21z"/>
			</g>
		</g>
		<rect x="104.86" y="128.84" class="st25" width="34.68" height="19.06"/>
		<g>
			<rect x="107.85" y="132.07" class="st26" width="28.87" height="1.5"/>
			<rect x="107.85" y="134.97" class="st26" width="28.87" height="1.5"/>
			<rect x="107.85" y="137.87" class="st26" width="28.87" height="1.5"/>
			<rect x="107.85" y="140.77" class="st26" width="28.87" height="1.5"/>
			<rect x="107.85" y="143.67" class="st26" width="17.46" height="1.5"/>
		</g>
	</g>
</g>
</svg>
